<svg xmlns="http://www.w3.org/2000/svg" viewBox="0 0 24 24" fill="currentColor">
  <path
    d="M12 2a1 1 0 0 1 1 1v1a1 1 0 1 1-2 0V3a1 1 0 0 1 1-1Zm0 17a1 1 0 0 1 1 1v1a1 1 0 1 1-2 0v-1a1 1 0 0 1 1-1Zm10-7a1 1 0 0 1-1 1h-1a1 1 0 1 1 0-2h1a1 1 0 0 1 1 1ZM5 13H4a1 1 0 1 1 0-2h1a1 1 0 1 1 0 2Zm12.95 6.536a1 1 0 0 1-1.414 0l-.707-.707a1 1 0 1 1 1.414-1.414l.707.707a1 1 0 0 1 0 1.414ZM8.172 8.879a1 1 0 1 1-1.414-1.414l.707-.707a1 1 0 0 1 1.414 1.414l-.707.707Zm9.778-2.121a1 1 0 0 1 0 1.414l-.707.707a1 1 0 1 1-1.414-1.414l.707-.707a1 1 0 0 1 1.414 0ZM8.172 15.121a1 1 0 0 1 0 1.414l-.707.707a1 1 0 1 1-1.414-1.414l.707-.707a1 1 0 0 1 1.414 0ZM12 7a5 5 0 1 1 0 10 5 5 0 0 1 0-10Z"
  />
</svg>
